<svg role="presentation" focusable="false" aria-hidden="true" xmlns="http://www.w3.org/2000/svg" viewBox="0 0 33.65 33.65">
<path d="M16.82.42a16.83,16.83,0,0,0-5.31,32.79c.84.15,1.15-.37,1.15-.81s0-1.46,0-2.87C8,30.55,7,27.28,7,27.28A4.49,4.49,0,0,0,5.1,24.82c-1.53-1.05.11-1,.11-1a3.51,3.51,0,0,1,2.58,1.73,3.59,3.59,0,0,0,4.9,1.4,3.53,3.53,0,0,1,1.07-2.25c-3.74-.43-7.67-1.87-7.67-8.32a6.52,6.52,0,0,1,1.73-4.51A6.08,6.08,0,0,1,8,7.39s1.41-.45,4.62,1.73a15.87,15.87,0,0,1,8.43,0c3.21-2.18,4.62-1.73,4.62-1.73a6.08,6.08,0,0,1,.17,4.46,6.47,6.47,0,0,1,1.73,4.51c0,6.47-3.94,7.89-7.68,8.3A4,4,0,0,1,21,27.78c0,2.25,0,4.06,0,4.62s.3,1,1.16.81A16.83,16.83,0,0,0,16.82.42Z" style="fill:#181717;fill-rule:evenodd"/>
</svg>